# xmcd CD database file
#
# Track frame offsets:
#	187
#	17617
#	36695
#	49972
#	67550
#	81985
#	98190
#	111232
#	125212
#	140115
#	153640
#	170127
#	189202
#	205847
#	221745
#
# Disc length: 3122 seconds
#
# Revision: 0
# Processed by: cddbd v1.4PL0 Copyright (c) Steve Scherf et al.
# Submitted via: CDex 1.50
#
DISCID=e40c300f
DTITLE=Kid Ory - King of the tailgate trombone
DYEAR=1948
DGENRE=Jazz
TTITLE0=Panama rag
TTITLE1=Sister Kate
TTITLE2=Mahogany hall Stomp
TTITLE3=Margie
TTITLE4=Chinatown, my chinatown
TTITLE5=Do you know what it means, to miss New Orleans
TTITLE6=Sugar foot stomp
TTITLE7=Black and blue
TTITLE8=Oh! Didn't he ramble
TTITLE9=At the jazz band ball
TTITLE10=High society
TTITLE11=Sweet Georgia Brown
TTITLE12=San
TTITLE13=Shake that thing
TTITLE14=Ory's boogie
EXTD=YEAR: 1948
EXTT0=
EXTT1=
EXTT2=
EXTT3=
EXTT4=
EXTT5=
EXTT6=
EXTT7=
EXTT8=
EXTT9=
EXTT10=
EXTT11=
EXTT12=
EXTT13=
EXTT14=
PLAYORDER=
